<?xml version="1.0" standalone="no"?><!DOCTYPE svg PUBLIC "-//W3C//DTD SVG 1.1//EN" "http://www.w3.org/Graphics/SVG/1.1/DTD/svg11.dtd"><svg t="1674712643684" class="icon" viewBox="0 0 1024 1024" version="1.1" xmlns="http://www.w3.org/2000/svg" p-id="35407" xmlns:xlink="http://www.w3.org/1999/xlink" width="200" height="200"><path d="M512 128c-70.4 0-128 57.6-128 128 0 59.264 40.992 108.736 96 123.008V448h-96v64h96v255.008c-77.632-6.144-129.28-34.496-166.016-67.008-27.968-24.736-46.72-52-59.968-75.008l50.976-24.992-128-58.016L143.04 680l52.992-26.016a355.776 355.776 0 0 0 75.008 94.016c46.496 41.28 115.104 75.36 208.992 82.016V832l32 32 32-32v-2.016c93.888-6.624 162.496-40.736 208.992-81.984a355.776 355.776 0 0 0 75.008-94.016l52.992 26.016-33.984-138.016-128 58.016 50.976 24.992c-13.248 23.008-32 50.24-60 75.008-36.736 32.512-88.352 60.864-165.984 67.008V512h96v-64h-96v-68.992c55.008-14.272 96-63.744 96-123.008 0-70.4-57.6-128-128-128z m0 64c35.744 0 64 28.256 64 64s-28.256 64-64 64-64-28.256-64-64 28.256-64 64-64z" p-id="35408" fill="#ff7a57"></path></svg>