<?xml version="1.0" standalone="no"?><!DOCTYPE svg PUBLIC "-//W3C//DTD SVG 1.1//EN" "http://www.w3.org/Graphics/SVG/1.1/DTD/svg11.dtd"><svg t="1674712879924" class="icon" viewBox="0 0 1024 1024" version="1.1" xmlns="http://www.w3.org/2000/svg" p-id="36061" xmlns:xlink="http://www.w3.org/1999/xlink" width="200" height="200"><path d="M512 128L96 224v64l416-96 416 96V224z m-192 192c-103.264 0-204 42.016-204 42.016l-20 8.96V864h360.992c11.136 19.136 31.36 32 55.008 32 23.616 0 43.872-12.864 55.008-32H928V371.008l-20-8.992S807.264 320 704 320c-93.376 0-175.36 31.36-192 38.016C495.36 351.36 413.376 320 320 320z m0 64c61.888 0 128 20 160 31.008v356c-35.616-11.744-94.112-28-160-28-67.264 0-122.016 15.488-160 28V415.008C184.64 406.08 249.6 384 320 384z m384 0c70.4 0 135.36 22.112 160 31.008v356c-38.016-12.48-92.736-28-160-28-65.888 0-124.384 16.256-160 28V415.008c32-11.008 98.112-31.008 160-31.008z" p-id="36062" fill="#ff7a57"></path></svg>