<?xml version="1.0" standalone="no"?><!DOCTYPE svg PUBLIC "-//W3C//DTD SVG 1.1//EN" "http://www.w3.org/Graphics/SVG/1.1/DTD/svg11.dtd"><svg t="1674712729336" class="icon" viewBox="0 0 1024 1024" version="1.1" xmlns="http://www.w3.org/2000/svg" p-id="35811" xmlns:xlink="http://www.w3.org/1999/xlink" width="200" height="200"><path d="M512 128c-70.4 0-128 57.6-128 128 0 35.616 15.264 67.744 39.008 91.008A161.152 161.152 0 0 0 352 480v148l64 32V800h192v-140l64-32V480a161.152 161.152 0 0 0-71.008-132.992C624.736 323.744 640 291.648 640 256c0-70.4-57.6-128-128-128z m0 64c35.744 0 64 28.256 64 64s-28.256 64-64 64-64-28.256-64-64 28.256-64 64-64z m0 192c53.376 0 96 42.624 96 96v108l-64 32V736h-64v-116l-64-32V480c0-53.376 42.624-96 96-96z m-224 220c-93.376 26.112-160 70.4-160 132 0 104.992 193.12 160 384 160s384-55.008 384-160c0-61.632-66.624-105.888-160-132v67.008c60.864 19.616 96 44.992 96 64.992 0 38.24-127.616 96-320 96-192.384 0-320-57.76-320-96 0-20 35.136-45.376 96-64.992z" p-id="35812" fill="#ff7a57"></path></svg>